<svg xmlns="http://www.w3.org/2000/svg" xmlns:xlink="http://www.w3.org/1999/xlink" width="42.929" height="43" viewBox="0 0 42.929 43">
  <defs>
    <rect id="rect-1" width="42.929" height="43" x="0" y="0"/>
    <mask id="mask-2" maskContentUnits="userSpaceOnUse" maskUnits="userSpaceOnUse">
      <rect width="42.929" height="43" x="0" y="0" fill="black"/>
      <use fill="white" xlink:href="#rect-1"/>
    </mask>
  </defs>
  <g opacity=".2">
    <use fill="none" xlink:href="#rect-1"/>
    <g mask="url(#mask-2)">
      <path fill="rgb(0,0,0)" fill-rule="evenodd" d="M29.03903198 20.7829895h3.87164307c.39511108 0 .71536255.32077027.71536255.71655274 0 .39575195-.32025147.71652221-.71536255.71652221h-3.87164307L25.66674805 28.296875c-.12619019.22732544-.36553955.36831665-.62524414.36831665h-7.1538086c-.2597351 0-.49899292-.14099121-.62524414-.36831665l-3.37231445-6.08081055h-3.87161255c-.39511108 0-.71536255-.32077026-.71536255-.71652221 0-.39578247.32025147-.71655274.71536255-.71655274h3.87161255l3.37231445-6.08078003c.12615967-.22732544.36550904-.36831665.62524414-.36831665h7.1538086c.25970459 0 .4989624.14099121.62524414.36831665l3.37228393 6.08078003zm-10.73083496 6.44909668h6.31253052l3.17913818-5.73254394-3.17913818-5.73257447h-6.31253052l-3.1791687 5.73257447 3.1791687 5.73254394z"/>
      <path fill="rgb(0,0,0)" fill-rule="evenodd" d="M41.84085083 14.76382446c.00427246.00857544.0064392.02008057.01358032.028656 1.4328003 4.35522462 1.4328003 9.05603028-.00009155 13.4112854-.00427246.00997926-.0064392.02139283-.01074219.03149415-.82803345 2.50631714-2.11016845 4.83831787-3.78225708 6.87902832-.02529907.03762817-.05456543.0723877-.08724975.10388184-2.79956055 3.37890625-6.5632019 5.8201599-10.7866211 6.99661254-.0409851.015625-.08340454.02737427-.12658691.03509522-3.66531372.99557495-7.52911377.99557495-11.19436646 0-.04266357-.0078125-.0845642-.01956177-.12515258-.03509522-4.22424317-1.17630004-7.98861695-3.61779785-10.7886963-6.99728393-.03186035-.03131104-.06036376-.06591797-.085083-.10321045-1.67172241-2.03985596-2.95388794-4.3708496-3.78225708-6.87619019-.00427246-.00997924-.00646973-.02142334-.01074219-.03149414-1.4328003-4.3552246-1.4328003-9.05603027 0-13.4112854.00427246-.00997924.00646973-.02148437.01074219-.03149414.82803345-2.50631714 2.11019897-4.83831787 3.78225708-6.87902832.0265808-.03753662.05700683-.07214355.09088135-.10321045C9.02993774 2.85507202 15.08242798.0034485 21.46740723.0034485c6.38494873 0 12.43737793 2.85162353 16.5088501 7.7781372.0319519.03134156.06045532.06591797.08517455.10321045 1.67105103 2.0409546 2.95220948 4.37295532 3.77941895 6.87902832zm-4.28024292 18.66009522l-.44927979-.8083191c-.12615966-.22665405-.36474609-.36721801-.6238098-.36761474h-6.82476808l-2.23846435-2.61618042c-.2597046-.28860474-.70175171-.3173523-.996521-.06466675-.29476928.25268555-.33474731.6946106-.0901184.99615479l2.12896728 2.48794555-3.335083 6.01272583c-.11972047.2161255-.11972047.47888184 0 .69503785l.72463988 1.31130981c-2.89074707.65548706-5.89126586.65548706-8.7819519 0l.72390747-1.30987549c.11972046-.216156.11972046-.47891235 0-.69506836l-3.335083-6.01269531 2.12896728-2.48794556c.2446289-.30160522.20465088-.74349975-.09011841-.99615478-.29476929-.25268555-.7368164-.2239685-.996521.06466675l-2.23913574 2.61474609H6.44137573c-.259552-.0001831-.49880981.14047241-.62521362.36761475l-.44784546.80831909c-1.08129883-1.46029663-1.95904541-3.06121826-2.60900879-4.75872803h.82055664c.2597351 0 .49908447-.14099121.62524414-.36831665l3.57696533-6.44909668c.12020874-.21655273.12020874-.47998047 0-.69647217l-3.57696533-6.44909668c-.12625122-.22732544-.36550903-.36831665-.62524414-.36831665h-.82055664c.64996338-1.69750976 1.52770996-3.2984314 2.60900879-4.75872803l.44924927.8083191c.12619018.22665405.3647766.36721801.62380981.36764526h6.82476807l2.23846435 2.6161499c.2597046.28863526.70178223.3173523.996521.06466675.29476929-.25268555.33474731-.6946106.0901184-.99615478l-2.12896728-2.48794556 3.33511353-6.01269531c.11968994-.216156.11968994-.47891236 0-.69506836l-.72467041-1.31130982c2.89077759-.65548706 5.89126587-.65548706 8.78204346 0l-.72467041 1.31130982c-.11972046.216156-.11972046.47891235 0 .69506836l3.335083 6.0126953-2.12896728 2.48794557c-.2446289.30160522-.20462036.74346923.0901184.99615478.2947693.25268555.73681641.2239685.99655152-.06466675l2.23986816-2.6161499h6.82476807c.259552.00015259.49880982-.14050293.62524414-.36764526l.44924927-.8083191c1.08081055 1.46035767 1.95803833 3.06130982 2.60757446 4.75872803h-.82055664c-.2597351 0-.49905395.14099121-.62524414.36831665l-3.57693481 6.44909668c-.12023926.21658325-.12023926.47998047 0 .69647217L38.7237854 28.296875c.12625122.22732544.36550903.36831665.62524414.36831665h.82055664c-.64996338 1.69750977-1.52770996 3.2984314-2.60897827 4.75872803zM15.64486694 2.30203248l.70898438 1.2833557-3.1791687 5.73257447H6.86206055l-.5265503-.94589234c2.471344-2.86026 5.69793702-4.96411133 9.3093567-6.07003784zm20.94851685 6.0699768c-2.471344-2.85995484-5.69793701-4.96356201-9.30926514-6.06930542l-.70889282 1.28259277 3.1791687 5.73257446h6.31243897l.52655029-.94586181zm-34.32189941 7.3949585c-.55581666 1.85998535-.8380127 3.79110717-.83776856 5.73257446-.00024414 1.94143676.2819519 3.87255859.83776856 5.73254394h.88778686l3.1791687-5.73254394-3.1791687-5.73257447h-.88778686zm37.49822998 11.4651184h.88778686c.5557251-1.85998535.8380127-3.79110718.83776856-5.73254394.00015258-1.94146729-.28204346-3.87265015-.83776856-5.73257447h-.88778686l-3.1791687 5.73257447 3.1791687 5.73254394zM15.64486694 40.69638062c-3.61123657-1.10574341-6.83792114-3.2093506-9.30926513-6.06930542l.52655029-.94586182h6.31256103l3.17913819 5.73257446-.70898438 1.28259278zm10.93035889-1.28259278l.70889282 1.28335571c3.61141968-1.1059265 6.8380127-3.20986938 9.3093567-6.07006835l-.5265503-.94586182h-6.31253052l-3.1791687 5.73257446z"/>
    </g>
  </g>
</svg>
