<svg xmlns="http://www.w3.org/2000/svg" xmlns:xlink="http://www.w3.org/1999/xlink" width="59.171" height="59.171" viewBox="0 0 59.171 59.171">
  <defs>
    <rect id="rect-1" width="42" height="42" x="8.585" y="8.585"/>
    <mask id="mask-2" maskContentUnits="userSpaceOnUse" maskUnits="userSpaceOnUse">
      <rect width="59.171" height="59.171" x="0" y="0" fill="black"/>
      <use fill="white" xlink:href="#rect-1"/>
    </mask>
  </defs>
  <g opacity=".2" transform="rotate(-40.000014 29.5854731 29.5854731)">
    <use fill="none" xlink:href="#rect-1"/>
    <g mask="url(#mask-2)">
      <path fill="rgb(0,0,0)" fill-rule="evenodd" d="M50.555542 32.51733398c-.08613587-.8798828-.25274659-1.85223388-.44659425-2.97790527-.57695007-2.97387695-.88555908-5.99353027-.92190551-9.02264404.00057983-.24206543-.12387085-.46728516-.32920838-.59552002-.20533752-.12817383-.46226501-.14123535-.67956543-.03448486-1.24101257.47161865-2.56497192.68597412-3.89146423.63000488-3.8102417 0-7.72270203-2.48999024-7.99850464-2.66925049-.16947937-.1185913-.37464905-.17529297-.58105469-.16027832-.36193847.01403809-1.4623413.05670166-5.25019836 4.47174072-.13847351.15844727-.2849884.30957031-.4388733.4529419-.08302306.05072021-.15455627.1182251-.2100067.19812011-.82165528.68560791-1.7179718 1.2765503-2.6720276 1.7612915-.09335327.02630616-.17980956.07263184-.2534027.1357422-.86595154.44732666-1.82009888.8743286-2.81689454 1.27966308-.08293151.0166626-.16201782.04870606-.23313903.09448242-.92190552.36889649-1.87957764.7189331-2.84281922 1.05004883h-.01608276c-.09736633.01287842-.19088745.04626465-.2743988.09802246-3.38883973 1.1326294-6.79374695 1.99926758-8.88119507 2.48931885-1.72198487.40454102-3.00146485 1.85144043-3.19212342 3.61004639-.00376892.0255127-.006073.05114746-.00697326.07702636-.01263428.13220215-.03363037.26385498-.03363037.39752198.00598144 2.43133545 1.7937622 4.49053955 4.20014953 4.83789062v1.44488526c0 .77325439.62683106 1.40008544 1.40008545 1.40008544h2.1000824c.7732544 0 1.40007019-.62683105 1.40007019-1.40008544v-1.395813h1.40000915v1.395813c0 .77325439.6268158 1.40008544 1.4000702 1.40008544h2.1000824c.77325439 0 1.40007018-.62683105 1.40007018-1.40008544v-1.395813h1.40000916v1.395813c0 .77325439.6268158 1.40008544 1.40007019 1.40008544h2.1000824c.7732544 0 1.40008545-.62683105 1.40008545-1.40008544v-1.395813h8.40029907v1.395813c0 .77325439.62683105 1.40008544 1.40008545 1.40008544h2.1000824c.77325439 0 1.40007018-.62683105 1.40007018-1.40008544v-1.40008545h.70001221c.2341919-.00238038.46798706-.01947022.6999817-.05114746v.75115966c0 .7732544.62683105 1.40002442 1.40008544 1.40002442h2.1000824c.7732544 0 1.40007019-.62677002 1.40007019-1.40002442v-3.31463623c.55447388-1.09753418.78630066-2.32989502.66842651-3.55395508zm-40.48533631.63977051c.23913574-1.02941894 1.0418396-1.83392334 2.07070923-2.07556152v-.00213623c2.30311584-.54180908 5.2949829-1.31604004 8.27357483-2.28411865.01000976.41564941-.05693055.8295288-.1973877 1.2208252-.10064697.23205566-.06832886.50042724.08467102.70196532.15298462.20147705.40278626.30474854.6533966.2701416.25061036-.03460693.46299744-.20184326.5556183-.43725585.26037597-.7098999.3598938-1.46881104.29122924-2.22192383.58169556-.20227051 1.15922547-.41088867 1.72624207-.63000489-.01361084.31140137-.07695008.61865235-.18760681.91003418-.10566712.23223877-.07653809.50360108.07595825.70819092.15249634.20458985.40426636.30993653.65701294.27502442.25274658-.03485108.46652221-.20458985.5578308-.44281006.24266053-.64221192.34577943-1.32879639.30238343-2.01391602.59294128-.24786377 1.16767883-.5032959 1.71853638-.77008056-.01846314.28814697-.08195496.57165527-.18826294.84002685-.1510315.3557129.01475525.7664795.3703003.91772461.08621215.03710938.17915343.05615234.27301024.05603027.28096009.0001831.53485108-.16766357.6446991-.42633056.25505066-.66900635.35783386-1.38635254.30097962-2.10009766.59811401-.32556152 1.1776886-.68408203 1.73609924-1.0737915.01164246.41900634-.055542.83648681-.19812012 1.23065185-.0715332.17138672-.07194519.36407471-.00131225.53588867.07063293.1716919.20657348.30834961.37794494.37982178.0848999.03790283.17652893.05841065.26947022.06018067.28277588.00030517.53799438-.16955567.64685058-.43048096.28579712-.78845215.3817749-1.63305664.27998352-2.46551514 4.83854676-1.28100586 6.16020203-.24707031 7.43074036.76098633.97103882.91802979 2.25553894 1.43127441 3.59187317 1.43499756.3866272 0 .69999695-.3133545.69999695-.69995117 0-.38665772-.31336975-.70001221-.69999695-.70001221-1.02223206-.00280762-2.00180054-.40966797-2.72517395-1.13189697-1.33021546-1.05438233-2.81362915-2.23022461-7.16545105-1.3692627 2.1595459-2.40600586 3.09687805-2.94921875 3.38186645-3.06750488.8687439.54528809 4.69013977 2.80004883 8.61030579 2.80004883 1.18409729.01519775 2.36497498-.12597656 3.51205444-.41998291.01681519.72589111.05529786 1.4175415.10427857 2.08679199-.75021363.3560791-1.54232788.6159668-2.35766602.77349853-.3507843.07299805-.58982849.39916993-.55381775.75567627.03601075.35656739.33543396.6282959.69377137.62963868.04847717 0 .0967865-.005188.14421081-.0154419.75447083-.15289306 1.49269104-.37677002 2.20507813-.66845703.18974304 1.77947998.45783996 3.34399414.69441223 4.71740723.12600708.73504638.23799133 1.40008545.32478332 2.00775146-.77842712 1.86627197-3.02624511 2.77624512-6.72024536 2.71124268-.04873657-.01068115-.098526-.01611328-.14840698-.01611328h-26.6009369c-3.42312621-.00024414-4.97923278-.90466309-5.51548766-1.32189942zm38.41674805 2.7210083c.00090026-.15081787.05044555-.29742431.14141845-.41784668.23117066-.43389892.38917542-.90289306.46768189-1.38787841-1.34609986 1.20404052-3.46438599 1.82635498-6.37020874 1.82635498-.16661072 0-.33462525-.00213623-.5061493-.00634766-.04069519-.00091553-.08122253-.00531006-.12109375-.01330566H15.58578491c-1.86291504.07507324-3.71812439-.27813721-5.42312622-1.03253174.4535675 1.44659424 1.79014588 2.43426513 3.30622864 2.4430542.00558472 0 .01049805-.00354004.01681518-.00354004h.69999695c.3866272 0 .69999695.31335449.69999695.7000122 0 .38659668-.31336975.70001221-.69999695.70001221v1.40008545h2.1000824v-2.09594726c0-.38659668.31336975-.69995118.69999695-.69995118h2.77841186c.00772095 0 .01403809-.00421142.02174378-.00421142h.69999695c.3865509 0 .69999694.31335449.69999694.7000122 0 .38659668-.31336975.70001221-.69999694.70001221v1.40008545h2.1000824v-2.09594726c0-.38659668.31336974-.69995118.69999694-.69995118h2.77842713c.00770568 0 .01402282-.00421142.02172851-.00421142h.69999695c.3866272 0 .7000122.31335449.7000122.7000122 0 .38659668-.313385.70001221-.7000122.70001221v1.40008545h2.1000824v-2.09594726c0-.38659668.31336975-.69995118.69999695-.69995118h9.7771759c.00772095 0 .01402283-.00421142.02174377-.00421142.0077057 0 .01402283.00421142.02174378.00421142h.67973327c.3866272 0 .69999695.3133545.69999695.69995118 0 .38659667-.31336975.7000122-.69999695.7000122v1.39581299h2.1001587v-2.10003662c0-.38659668.31336975-.7000122.69999694-.7000122h1.4000702c.40460205.00091552.80714416-.05737305 1.19491577-.1729126-.0003357-.00091553.2654724-.09802247.60484314-.2576294.22706604-.11254883.49729919-.0935669.70640564.04956055.20910644.14312744.32452392.3881836.30171203.640625-.02281189.25238037-.1803131.47271728-.4117279.57611084-.10639954.050354-.20582581.09448242-.29614258.13372802v1.13049317h2.1000824v-3.50787354z"/>
      <path fill="rgb(0,0,0)" fill-rule="evenodd" d="M45.68687726 28.88559753h.69999864c.38662762 0 .69999863-.313371.69999863-.69999864 0-.38662762-.313371-.69999863-.69999863-.69999863h-.69999864c-.38662763 0-.69999863.31345304-.69999863.69999863 0 .3865456.313371.69999864.69999863.69999864z"/>
      <path fill="rgb(0,0,0)" fill-rule="evenodd" d="M45.68687726 31.6856741h.69999864c.38662762 0 .69999863-.31337101.69999863-.69999864s-.313371-.69999863-.69999863-.69999863h-.69999864c-.38662763 0-.69999863.313371-.69999863.69999863 0 .38662763.313371.69999863.69999863.69999863z"/>
    </g>
  </g>
</svg>
