<svg xmlns="http://www.w3.org/2000/svg" xmlns:xlink="http://www.w3.org/1999/xlink" width="57.373" height="57.373" viewBox="0 0 57.373 57.373">
  <defs>
    <rect id="rect-1" width="42" height="42" x="7.687" y="7.687"/>
    <mask id="mask-2" maskContentUnits="userSpaceOnUse" maskUnits="userSpaceOnUse">
      <rect width="57.373" height="57.373" x="0" y="0" fill="black"/>
      <use fill="white" xlink:href="#rect-1"/>
    </mask>
  </defs>
  <g opacity=".2" transform="rotate(-30.00001 28.68653348 28.68653348)">
    <use fill="none" xlink:href="#rect-1"/>
    <g mask="url(#mask-2)">
      <path fill="rgb(0,0,0)" fill-rule="evenodd" d="M42.6866455 7.68652344H14.68652345c-.38659668 0-.69995117.31335449-.69995117.69998169V48.9864807c0 .38659668.31335449.69995117.69995117.69995117h28c.38659668 0 .69995117-.31335449.69995117-.69995117V8.38650513c.00012207-.3866272-.31323242-.6999817-.6998291-.6999817zm-.70007323 20.3000183h-8.45593262c-.34606934-2.40924071-2.41003418-4.19802856-4.84411621-4.19802856-2.43395996 0-4.4979248 1.78878785-4.84399414 4.19802857h-.75598145c-.38659668 0-.69995117.31335449-.69995117.69998169 0 .38659668.3133545.69998169.69995117.69998169h.75598145c.34606933 2.40924072 2.41003418 4.19802856 4.84399414 4.19802856 2.43408203 0 4.49804687-1.78878784 4.8441162-4.19802856h8.45593263v18.8999939h-4.90002442v-2.7999878c0-1.15975952-.94018555-2.09997559-2.09997558-2.09997559h-2.34155274c-.59069824-1.67797851-2.17602539-2.80047607-3.95495605-2.80047607-1.7788086 0-3.36413575 1.12249756-3.95495606 2.80047607h-2.34851074c-1.15979004 0-2.09997559.94021607-2.09997559 2.09997559v2.7999878h-4.90002441v-18.8999939h2.79992676c.38671875 0 .70007324-.31338501.70007324-.6999817 0-.38662719-.3133545-.69998168-.70007324-.69998168h-2.79992676V9.08654785h4.90002441v2.7999878c0 1.159729.94018555 2.09997558 2.09997559 2.09997558h2.34143066c.59082032 1.677948 2.17614746 2.80047607 3.95495606 2.80047607 1.77893066 0 3.36425781-1.12252807 3.95507812-2.80047607h2.34851075c1.15979003 0 2.09997558-.94015503 2.09997558-2.09997559V9.08654785h4.90002442v18.8999939zM21.68652344 9.08654786h14v2.7999878c0 .38659667-.3133545.69995117-.69995117.69995117H22.3864746c-.38659668 0-.69995117-.3133545-.69995117-.69995118V9.08654785zm6.99890136 6.31280518c1.0029297 0 1.9281006-.5397644 2.42163086-1.41281128h-4.84326171c.49353027.87298584 1.41870117 1.41281128 2.42163085 1.41281128zm3.43115235 13.98718261h-.63000488c-.38659668 0-.69995118-.313385-.69995118-.69998168 0-.3866272.3133545-.6999817.69995118-.6999817h.63000488c-.33129883-1.63119506-1.76550293-2.8034973-3.43005371-2.8034973-1.66442871 0-3.09863281 1.17230224-3.42993164 2.8034973h.63000488c.3864746 0 .69995117.3133545.69995117.6999817 0 .38659667-.3133545.69998168-.69995117.69998168h-.63000488c.33129883 1.63116456 1.76550293 2.80349732 3.42993164 2.80349732 1.66455078 0 3.09875488-1.17233276 3.4300537-2.80349732zm-3.42895508 12.58718873c-1.00280762 0-1.92810059.5397644-2.42163086 1.41281127h4.84326172c-.49353027-.87295532-1.41870117-1.41281127-2.42163086-1.41281127zm-7.00109863 6.31277465v-2.79995727c0-.3866272.31335449-.6999817.69995117-.6999817H34.9864502c.38671875 0 .70007324.31344605.70007324.6999817v2.79995727h-14z"/>
      <path fill="rgb(0,0,0)" fill-rule="evenodd" d="M29.18356082 28.18950614c-.0669375-.0632461-.14535937-.11320313-.231-.147-.12764062-.05594532-.26963672-.07062891-.40597265-.042-.04388672.0076289-.08629688.0218203-.126.042-.044625.01533984-.08695313.0365039-.126.063-.03666797.02583984-.07177735.05389453-.105.084-.0632461.0669375-.11320313.14535937-.147.231-.03584766.08416406-.0548789.1745625-.05602735.26602734.00123047.04692187.00590625.09376172.01402735.14002734.0076289.04388672.0218203.08629688.042.126.0152578.044625.0365039.08695313.063.126l.084.105.105.084c.03904687.0264961.081375.04766016.126.063.03970312.0201797.08211328.0343711.126.042.04626562.0081211.09302343.01279688.14002734.01402735.09146484-.0010664.18186328-.02009766.26602734-.05602735.08564063-.03379687.1640625-.0837539.231-.147l.084-.105c.0264961-.03904687.0477422-.081375.063-.126.02026172-.03970312.0343711-.08211328.042-.126.0081211-.04626562.01279688-.09302343.01402735-.14002734-.0010664-.09146484-.02009766-.18186328-.05602735-.26602734-.03396093-.08564063-.08383593-.1640625-.14708203-.231z"/>
      <path fill="rgb(0,0,0)" fill-rule="evenodd" d="M19.0916663 20.78142801c.27332812.2732461.71646093.2732461.98978905 0l.55510547-.55510547.55510547.55510547c.27464063.26528906.71129297.26151563.98125781-.00853125.27004688-.27004687.27382032-.70661719.00853125-.98125781l-.55510546-.55510547.55510546-.55510547c.26528907-.27464062.26151563-.71129297-.00853125-.98125781-.27004687-.27004688-.70661718-.27382031-.9812578-.00853125l-.55510548.55510547-.55510547-.55510547c-.27464062-.26528906-.71129296-.26151563-.9812578.00853125-.27004688.27004687-.27382032.70661719-.00853126.98125781l.55510547.55510547-.55510547.55510547c-.27332812.27332812-.27332812.71646094 0 .98978906z"/>
      <path fill="rgb(0,0,0)" fill-rule="evenodd" d="M35.90019754 20.50014285c-.27004687.27004688-.27382031.7066172-.00853125.98125782l.55510547.55510547-.55510547.55510546c-.2732461.27332813-.2732461.71646094 0 .98978907.27332813.2732461.71646094.2732461.98978906 0l.55510547-.55510547.55510547.55510547c.27464063.26528906.71129297.26151562.98125781-.00853125.27004688-.27004688.27382032-.7066172.00853125-.98125782l-.55510546-.55510546.55510546-.55510547c.26528907-.27464063.26151563-.71129297-.00853125-.98125782-.27004687-.27004687-.70661718-.2738203-.9812578-.00853125l-.55510548.55510547-.55510547-.55510547c-.27472265-.26528906-.71129296-.26143359-.9812578.00853125z"/>
      <path fill="rgb(0,0,0)" fill-rule="evenodd" d="M26.58653348 19.58656082h-2.1c-.38661328 0-.69997266.3134414-.69997266.69997266 0 .38661328.31335938.69997266.69997266.69997266h.46692187c-2.34076171 1.97473828-5.4558164 5.41586718-6.06686718 13.9503164-.01369922.18580078.04725.36930469.1693125.50998828.1220625.1406836.29514843.22698047.48094922.23969532h.04971093c.3679922.00090234.67388672-.28325391.69997266-.65026172.57397266-8.0325 3.3663164-11.13 5.60002734-13.0053164v.35560546c0 .38661328.3134414.69997266.69997266.69997266.38661328 0 .69997266-.31335938.69997266-.69997266v-2.1c0-.38661328-.31335938-.69997266-.69997266-.69997266z"/>
      <path fill="rgb(0,0,0)" fill-rule="evenodd" d="M21.68656082 38.83650614c-.38661328 0-.69997265.31335937-.69997265.69997265 0 .5798789-.4701211 1.05-1.05 1.05s-1.05-.4701211-1.05-1.05.4701211-1.05 1.05-1.05c.38661328 0 .69997265-.31335937.69997265-.69997265 0-.38661329-.31335937-.69997266-.69997265-.69997266-1.35310547 0-2.45002735 1.09692187-2.45002735 2.45002734s1.09692188 2.45002735 2.45002735 2.45002735 2.45002734-1.09692188 2.45002734-2.45002735c-.00008203-.38661328-.31352344-.70005468-.70005469-.70005468z"/>
    </g>
  </g>
</svg>
