<svg xmlns="http://www.w3.org/2000/svg" xmlns:xlink="http://www.w3.org/1999/xlink" width="57.373" height="57.373" viewBox="0 0 57.373 57.373">
  <defs>
    <rect id="rect-1" width="42" height="42" x="7.687" y="7.687"/>
    <mask id="mask-2" maskContentUnits="userSpaceOnUse" maskUnits="userSpaceOnUse">
      <rect width="57.373" height="57.373" x="0" y="0" fill="black"/>
      <use fill="white" xlink:href="#rect-1"/>
    </mask>
  </defs>
  <g opacity=".2" transform="rotate(30.00001 28.68653348 28.68653348)">
    <use fill="none" xlink:href="#rect-1"/>
    <g mask="url(#mask-2)">
      <path fill="rgb(0,0,0)" fill-rule="evenodd" d="M44.51281738 9.84118652c.21594239-.0904541.46289063-.0668335.65783692.06286621.19494629.12969971.31213379.34832764.31237793.5824585v11.87280273c.00073242.02026368.00073242.03918458 0 .05944825v10.14440918c.0336914.87805175-.49121094 1.68151855-1.30895996 2.00335693-3.30541993 1.13891602-8.57080079 1.82000732-14.08544922 1.82000732-5.46984864 0-10.6883545-.66918945-14-1.7913208v13.69128418c0 .77319336-.62683106 1.40002442-1.40002442 1.40002442h-1.40002441c-.77319336 0-1.40002442-.62683106-1.40002442-1.40002442v-38.5c0-1.15979004.94018555-2.09997558 2.0999756-2.09997558 1.1599121 0 2.09997558.94024658 2.09997558 2.09997558v.22125244c3.05908203 1.14593506 8.34545898 1.85076905 14.00012207 1.85076905 5.91918945 0 11.4477539-.7734375 14.42419433-2.01733399zm-29.82421875 12.5803833c-.00134277-.02142334-.00134277-.04302978 0-.06439209l-.00012207-12.5706787c0-.38659669-.31335449-.69995118-.69995117-.69995118-.38659668 0-.69995117.3133545-.69995117.69995117v38.50006104h1.40002441V22.42156982zm16.09997559-9.16864013c5.31994629-.05249024 10.15002441-.69299317 13.2944336-1.75701905v10.4138794c-2.93444825 1.09692383-7.91003419 1.78710937-13.2944336 1.84307861V13.2529297zm-14.69995117 8.6583252c2.93371582 1.09692382 7.91418457 1.78710937 13.29992675 1.84240722v-10.5c-5.32556152-.05181885-10.15551757-.69232178-13.29992675-1.75701904v10.41461181zm14.69995117 13.06970214c5.11010742-.05389404 9.90014648-.69439697 12.92907715-1.73883057.24316406-.13549804.38574218-.39990234.36535644-.67755126v-9.17004395c-3.14440918 1.06469727-7.96740722 1.70593262-13.2944336 1.75842285v9.82800293zm-1.40002442 0c-5.10998535-.05322265-9.90576171-.69372558-12.93603515-1.73883057-.2418213-.13397216-.38391113-.3961792-.36401367-.67199707v-9.17486572c3.1451416 1.06469727 7.97094726 1.70593262 13.30004882 1.75769043v9.82800293z"/>
      <path fill="rgb(0,0,0)" fill-rule="evenodd" d="M18.18858426 18.88650614c.38661328 0 .69997266-.31335938.69997266-.69997266v-3.24728906c1.11472265.29408203 2.26242187.4444453 3.41528906.4473164.38661328 0 .69997266-.3134414.69997266-.69997265s-.31335938-.69997266-.69997266-.69997266c-1.31348438.00049219-2.61778125-.21959766-3.85842188-.651-.21549609-.08498437-.4591289-.05791406-.65067187.0724336-.19154297.13034765-.30622266.34691015-.30622266.5785664v4.19991797c.00008203.38661328.3134414.69997266.7000547.69997266z"/>
      <path fill="rgb(0,0,0)" fill-rule="evenodd" d="M18.18858426 30.78653348c.38661328 0 .69997266-.3134414.69997266-.69997266v-3.24728906c1.11472265.29408203 2.26242187.44444531 3.41528906.4473164.38661328 0 .69997266-.31335937.69997266-.69997265 0-.38661328-.31335938-.69997266-.69997266-.69997266-1.31348438.0004922-2.61778125-.21959765-3.85842188-.651-.21549609-.08498437-.4591289-.05791406-.65067187.0724336-.19154297.13034765-.30622266.34691015-.30622266.57864844v4.2c.00008203.38636718.3134414.69980859.7000547.69980859z"/>
    </g>
  </g>
</svg>
