<svg xmlns="http://www.w3.org/2000/svg" xmlns:xlink="http://www.w3.org/1999/xlink" width="53.832" height="53.832" viewBox="0 0 53.832 53.832">
  <defs>
    <rect id="rect-1" width="42" height="42" x="5.916" y="5.916"/>
    <mask id="mask-2" maskContentUnits="userSpaceOnUse" maskUnits="userSpaceOnUse">
      <rect width="53.832" height="53.832" x="0" y="0" fill="black"/>
      <use fill="white" xlink:href="#rect-1"/>
    </mask>
  </defs>
  <g opacity=".2" transform="rotate(-20.000007 26.91596805 26.91596805)">
    <use fill="none" xlink:href="#rect-1"/>
    <g mask="url(#mask-2)">
      <path fill="rgb(0,0,0)" fill-rule="evenodd" d="M46.25613403 24.79693604c1.35958863 1.35925292 1.3723755 3.55950927.02856446 4.93444824l-7.5265503 7.32202148v3.2723999c.85369873.28137207 1.43161011 1.07727051 1.43496704 1.97613526v3.51397705c0 1.15979004-.94015502 2.09997558-2.09997558 2.09997558H23.35809326c-.56402588.00115967-1.0737915-.3363037-1.2928772-.8560791l-2.11468505.77001953c-.34936524.12701416-.73492432.10974122-1.07159424-.04779052-.3366394-.15759278-.59683228-.44256592-.72317505-.7921753l-1.64776611-4.52972412c-.22836304-.63201904.02459716-1.33728027.60269165-1.67999267l-4.1124878-5.43682862c-.70620727-.9352417-1.26867675-1.9708252-1.6687622-3.07232666l-4.5920105-12.61749267c-.5324707-1.38635254.09054565-2.94903565 1.43078613-3.58886719.50540161-.22369385 1.0663147-.29022217 1.61001587-.19110107l-.83999634-2.29534912c-.52276611-1.4406128.22033692-3.0324707 1.6604004-3.55670167.45477294-.16308593.94451904-.20294189 1.4196167-.11547851l-.10006715-.26672363c-.38430786-1.05444336-.09490966-2.23657227.73278809-2.99438477s2.03067017-.94195557 3.0472107-.46643066c.66577148.31237793 1.1810913.8751831 1.43359374 1.56591797l.10284424.27996826c.25823975-.32757569.5907898-.58892823.97018433-.7623291.70318603-.3145752 1.50546264-.32293702 2.21502685-.02313233.70956421.29980469 1.26269531.88092041 1.52716065 1.60443115l2.81680298 7.74206543v-5.14642334c.00384521-1.54748535 1.25949096-2.79998779 2.80700683-2.79998779.49295044.00280762.97619629.1369629 1.40005493.3885498v-.30450439c0-1.550354 1.2567749-2.80706787 2.80700684-2.80706787 1.55023193 0 2.8069458 1.25671387 2.8071289 2.8069458v.31854248c.36190796-.22583008.77304078-.36102295 1.19839478-.39404297.77682495-.05853271 1.54290772.20928955 2.11401367.7390747.57110596.52978517.89578247 1.27355958.89593506 2.05249024V27.3010254l2.52838135-2.53125c1.37451172-1.34423828 3.5748291-1.33209228 4.93441772.02716065zM31.77929688 7.315979c-.77709961 0-1.40701294.62994385-1.40701294 1.40698243v9.9890747c.87799072-.43981933 1.90206909-.48309326 2.81399536-.11907959V8.72296143c0-.77703858-.62991333-1.40698243-1.40698243-1.40698243zM8.74014281 17.34210205c-.66445923.34484863-.96115112 1.13580322-.68740845 1.83258057l3.75350953 10.3102417c1.4019165-.390625 2.88174438-.40661621 4.291687-.04620362 4.3063965 1.11657715 5.65246583 4.97210694 6.84249879 8.3748169.08465576.2421875.17218017.48162842.25756836.7224121l7.12393188-2.58996581-1.09759521-3.01568604c-.03216553-.08776855-.04641724-.18103027-.0419922-.27435303.0062256-.06243896.02108766-.12371826.04412843-.18206787.0045166-.02770996.01098633-.05511474.0196228-.08184814l4.53320313-9.72296143c.36068725-.77398681.20672607-1.69018554-.38711548-2.30371093-.47027588-.49462891-1.15533448-.72375489-1.82855225-.61157227-.67330933.11224365-1.2470398.55108643-1.5314331 1.17156982l-1.48822022 3.1906128c-.22970581.51757812-.7564087.83813476-1.32162476.80432129-.56237793-.0234375-1.05480957-.3847046-1.24597168-.91424561l-5.34448242-14.6831665c-.1315918-.35839844-.4060669-.64605713-.7578125-.79449463-.3517456-.14837647-.74935913-.144104-1.09780884.01184082-.66381835.34509277-.95993042 1.13574219-.68603515 1.83190918l2.73278808 7.5222168.77001954 2.11120605c.0326538.08789062.04693603.18151855.04199218.27514648-.01730346.33221436-.26608276.60644532-.59512329.65582276-.32904053.04937744-.6473999-.1395874-.76150512-.45214844l-4.4610901-12.26397705c-.12600707-.34136963-.3816223-.6192627-.71121215-.77349854-.3295288-.15600586-.70794678-.1729126-1.05001831-.04693603-.71218872.2602539-1.07943726 1.04766846-.82110596 1.76049805l4.4624939 12.26123046c.06323242.17456055.05462646.36712647-.02420044.53533936-.0788269.16815186-.22116089.29815674-.39581299.36132813-.07635498.02844238-.15725708.04290771-.2387085.0427246h-.01959228c-.0223999-.00073242-.04275513-.00982666-.06515503-.00982666-.05978394-.006958-.11843872-.02172851-.1743164-.04412841-.02401734-.01013184-.0473938-.02185059-.0699463-.03503418-.05072021-.0279541-.09771728-.06201172-.14004516-.10150147-.018219-.01745605-.03707886-.03222656-.05389404-.05108642-.05715943-.06347657-.10205079-.13708496-.13232422-.21697998l-3.54620362-9.7432251c-.26144409-.71142578-1.0484314-1.07800293-1.76119995-.82043457-.71218872.26019287-1.07937622 1.04760742-.82113647 1.76049804l1.65545654 4.54724122 2.599823 7.14135742c.07843017.21472168.04708862.45397949-.08383179.64123535-.1309204.1873169-.34503174.29888916-.57348633.2989502h-.02172851c-.01885987-.0006714-.03567505-.00836182-.05389405-.00836182-.0642395-.00634766-.12722778-.02215576-.18685913-.04693604-.02249145-.00933838-.04440307-.01983642-.0657959-.03149414-.05291747-.0288086-.10189819-.06433105-.14559936-.10571289-.0178833-.01519775-.03494263-.03137207-.05111694-.04833984-.0570984-.06365967-.10220337-.137146-.1329651-.21697998l-2.60046386-7.14630127c-.13183594-.35791016-.4060669-.64520264-.7574768-.79333496-.35144043-.1482544-.74862671-.14404297-1.0968628.01141357zm17.4251709-5.9031372c.00131226-.56719971.34371948-1.07781983.86798096-1.2942505.52426147-.21636962 1.12719726-.0960083 1.5281372.30511475.26373291.26141358.4118042.61767578.4109192.98913574v8.54699707c-.07727051.11212159-.14743043.22900391-.21002198.35003663l-1.47000122 3.19335937-1.12701416-3.09674072v-8.99365235zm11.40298462 24.82122802v-.00415039l7.73013306-7.52008057c.77886963-.83184814.75616455-2.131958-.05136109-2.93603515-.80752563-.80407715-2.10769653-.82141114-2.93621826-.03894043l-2.52493286 2.53118896c-.40029907.40246582-1.00396729.52337647-1.52841187.30615235-.52441406-.21728516-.86575317-.7296753-.86419677-1.29730225V11.43902588c-.00088501-.38903809-.16357422-.76019287-.44903565-1.02441406-.28546142-.26428223-.6680603-.39782715-1.05596924-.36865235-.75888061.09344483-1.32284545.74768067-1.30340576 1.51202393v8.06811523c.84909058 1.02001953 1.02966309 2.4399414.46273804 3.63995362l-4.41000366 9.45977783 1.04507446 2.86999512c.87963867-.00097657 1.66662598.54632568 1.9718628 1.37133789L34.8250122 40.182312c.00491333.00628662.00491333.01330567.00491333.01959229h2.53048706v-3.44891358c.00125122-.08416748.01782226-.16741943.04898071-.2456665.03512573-.0925293.08926392-.17681885.15890503-.24713135zm-23.45004272-1.76104736c-.6220398-.82409668-1.11743165-1.7364502-1.47000123-2.70690918l-.35699462-.9800415c1.13293457-.29858399 2.32336425-.30340577 3.4586792-.01397706 3.5826416.92956543 4.69488525 4.11181641 5.87228393 7.48156739.086792.24847412.17572022.48999023.26324463.7399292l-3.40756226 1.24035644-4.35964965-5.7609253zm3.71005249 7.48498535l1.6463623 4.53179932 13.61367798-4.95739747c.17480469-.06317138.3173523-.1932373.39611816-.36157226.07873535-.168396.08737183-.36108399.02386475-.53582764l-1.16690064-3.2144165c-.10073852-.27685547-.36404419-.46099854-.6586914-.46057129-.08148194-.0001831-.16226197.01409912-.2387085.04199219l-12.99484253 4.72991943-.62088012.22607422zm20.96496582.31848144l.0014038 3.5133667c0 .38659668-.313385.69995118-.69998169.69995118H23.56408691l5.78903199-2.10699463h6.64016723v.7000122c0 .38659668.31338501.69995118.6999817.69995118.38662719 0 .69998168-.3133545.69998168-.69995118v-.7000122c-.00271606-.77478028-.63223266-1.40118409-1.40701294-1.40002442h-2.78668213l.3703003-.13433838c.58569336-.21569824 1.0439148-.68237304 1.24874878-1.27191162h3.27459716c.3866272 0 .70007325.3133545.70007325.69995117z"/>
      <path fill="rgb(0,0,0)" fill-rule="evenodd" d="M31.75827273 39.84565164c-.26446875-.72039844-1.06107421-1.09191797-1.78286718-.83163281l-1.24810547.45428906c-.01123828.0041836-.02239453.00771094-.03363281.01263281l-8.46160547 3.08002735c-.23969532.08203125-.4163086.28710937-.46191797.5363203-.04560938.24921095.0470039.50358985.24215625.66510938.19515234.16151954.4622461.20507813.69857812.11385938l8.50221094-3.10028906c.0199336-.00615235.0396211-.01345313.0588164-.02173828l1.17247266-.42771094.23657813.64960547c.08580469.2349375.29039062.40630078.53673047.44953125.24633984.04323047.49702734-.04831641.65764453-.24010547.16061719-.19178906.20663672-.45461719.12091406-.68955469l-.23797266-.65034375z"/>
    </g>
  </g>
</svg>
