<svg xmlns="http://www.w3.org/2000/svg" xmlns:xlink="http://www.w3.org/1999/xlink" width="57.373" height="57.373" viewBox="0 0 57.373 57.373">
  <defs>
    <rect id="rect-1" width="42" height="42" x="7.687" y="7.687"/>
    <mask id="mask-2" maskContentUnits="userSpaceOnUse" maskUnits="userSpaceOnUse">
      <rect width="57.373" height="57.373" x="0" y="0" fill="black"/>
      <use fill="white" xlink:href="#rect-1"/>
    </mask>
  </defs>
  <g opacity=".2" transform="rotate(-30.00001 28.68653348 28.68653348)">
    <use fill="none" xlink:href="#rect-1"/>
    <g mask="url(#mask-2)">
      <path fill="rgb(0,0,0)" fill-rule="evenodd" d="M40.94702148 30.93844604l1.55401612 5.43759156c.53045654 1.85220337.3458252 3.8361206-.51727295 5.55877685l-3.68200684 7.36468506c-.11920166.23846436-.36340332.38858032-.63000488.38711548h-8.13684082c-1.30084229.00393677-2.43170166-.89169312-2.72583008-2.15881348l-.64959717-2.76364135c-.74755859.67578125-1.80169677.89529419-2.75683593.57388305-.95507813-.32138061-1.66217041-1.1335144-1.8491211-2.12368774-.86444092.42834473-1.88928222.37780762-2.7074585-.13357544-.81817626-.51138306-1.31262206-1.4104309-1.30633544-2.37521362 0-.0637207.01391601-.12460328.01885986-.18759156-.06298828.00418091-.12322998.018219-.18682861.018219-1.130188-.00140381-2.14874268-.6820984-2.58239746-1.72576905-.43359375-1.04370117-.19726563-2.24569702.59924316-3.04754638l2.70062256-2.70065308c-.00482178-.05880737-.01745606-.11547851-.01745606-.1756897V9.78652954c0-1.15985107.94024659-2.1000061 2.10003662-2.1000061h13.99993897c1.15985107 0 2.09997559.94024658 2.09997559 2.1000061v15.1102295l2.71533203 2.71179199c.92480468.9260559 1.59918213 2.0718689 1.95996093 3.32989501zm-3.7078247 17.34811402l3.49157715-6.9755249c.70599365-1.41027832.85595703-3.03439331.41992187-4.54992676l-1.55395508-5.43762207c-.2944336-1.0293274-.8458252-1.96685791-1.60235595-2.72442627l-1.72271729-1.72271729v6.01019287c0 .38659668-.3133545.69995118-.7000122.69995118-.38659669 0-.69995118-.3133545-.69995118-.69995118V9.78652954c0-.3866272-.3133545-.69998169-.69995117-.69998169H20.17169189c-.38659668 0-.69995117.3133545-.69995117.6999817v23.09991454c0 .38659668.3133545.6999817.69995117.6999817h3.3600464L22.12121581 27.604187c-.37054443-1.57409668.4765625-3.18041992 1.98486328-3.7637329 1.50830078-.58334351 3.21582031.03500365 4.0008545 1.44882201l5.97662353 10.7597046c.12145996.21862792.11724853.48547363-.0112915.69998168-.12860108.21450806-.36169434.34420777-.61181641.34017945-.25012207-.00402832-.4790039-.14117432-.6005249-.3597107L26.88323975 25.9718628c-.4454956-.80334472-1.41552735-1.15490722-2.2722168-.82351684-.85675049.3314209-1.33776856 1.24401855-1.1268921 2.13815307l4.68865968 19.92071534c.14666748.6335144.7119751 1.0814209 1.36224365 1.0793457h7.7041626zM19.3548584 41.69882202c.5472412.5416565 1.42907715.5397644 1.97399902-.0041809l3.32641602-3.32086182-.79656983-3.3873291h-3.68688965c-.53857421-.00073243-1.05603027-.20965577-1.4440918-.58306885l-2.34503173 2.34503174h.0014038c-.26379394.2626648-.4118042.619812-.41101073.99209594.00085449.37231446.15032959.7288208.41516113.99035645.5548706.52261352 1.42138672.52072143 1.97399902-.00418091l2.01605225-2.01602173c.27459717-.2652893.71118164-.26150513.9812622.00854492.27001954.2699585.27380372.706604.0084839.98126221l-2.0131836 2.01321411c-.26531983.26217652-.41448975.61965943-.41448975.99255371 0 .3729248.149292.73040772.41448975.99258423zm5.93597412 1.97680664c-.34802246.37814331-.87542725.5352478-1.3737793.40908814-.49822998-.12615967-.8873291-.5152588-1.01348877-1.01348877-.12615966-.4982605.03082276-1.02566529.40911866-1.3737793l1.71984863-1.71987915.75384521 3.20251465-.49554443.49554443z"/>
      <path fill="rgb(0,0,0)" fill-rule="evenodd" d="M25.77171707 10.48650614h-3.50002734c-.77322656 0-1.40002734.62680078-1.40002734 1.40002734v4.2c0 .38661328.31335937.69997266.69997265.69997266.38661328 0 .69997266-.31335938.69997266-.69997266v-4.2h3.50002734c.38661328 0 .69997266-.31335938.69997266-.69997266s-.31327735-.70005468-.69989063-.70005468z"/>
      <path fill="rgb(0,0,0)" fill-rule="evenodd" d="M30.67177176 10.48650614h-2.1c-.38661328 0-.69997266.31335937-.69997266.69997265 0 .38661328.31335938.69997266.69997266.69997266h2.1c.38661328 0 .69997266-.31335938.69997266-.69997266s-.3134414-.69997265-.69997266-.69997265z"/>
      <path fill="rgb(0,0,0)" fill-rule="evenodd" d="M21.57171707 18.18653348c-.38661328 0-.69997265.31335937-.69997265.69997266v1.40002734c0 .38661328.31335937.69997266.69997265.69997266.38661328 0 .69997266-.31344141.69997266-.69997266v-1.40002734c.00008203-.38661329-.31335938-.69997266-.69997266-.69997266z"/>
    </g>
  </g>
</svg>
